<svg version="1.1" viewBox="0 0 640 360" xmlns="http://www.w3.org/2000/svg"><g transform="translate(0 -157.62)"><path d="m0 157.62h640v360h-640z" fill="#060606" opacity=".542" style="paint-order:markers stroke fill"/><g fill="#878787"><path d="m573.87 257.88c-21.343 7.0236-44.007-3.0722-51.089-22.757-7.0818-19.685 4.0012-41.783 24.982-49.811 20.981-8.0284 44.212 0.9396 52.364 20.215 0 0-39.768-18.291-53.877 9.557-16.17 31.918 27.619 42.797 27.619 42.797z" opacity=".3" style="paint-order:markers stroke fill"/><path d="m64.828 223.55c-5.9365-4.7242-11.873-9.4485-17.809-14.173l-8.3371 21.179 3.3692-22.51c-7.5033 1.1231-15.007 2.2462-22.51 3.3692 7.0596-2.779 14.119-5.558 21.179-8.3371-4.7242-5.9365-9.4485-11.873-14.173-17.809 5.9365 4.7242 11.873 9.4485 17.809 14.173l8.3371-21.179-3.3692 22.51c7.5033-1.1231 15.007-2.2462 22.51-3.3692-7.0596 2.779-14.119 5.558-21.179 8.3371 4.7242 5.9365 9.4485 11.873 14.173 17.809z" opacity=".3" style="paint-order:markers stroke fill"/><path d="m358.12 255.42c-8.288-6.5956-16.576-13.191-24.864-19.787-3.8798 9.856-7.7597 19.712-11.64 29.568 1.568-10.475 3.1359-20.951 4.7038-31.426-10.475 1.568-20.951 3.1359-31.426 4.7038 9.856-3.8798 19.712-7.7597 29.568-11.64-6.5956-8.288-13.191-16.576-19.787-24.864 8.288 6.5956 16.576 13.191 24.864 19.787 3.8798-9.856 7.7597-19.712 11.64-29.568-1.568 10.475-3.1359 20.951-4.7038 31.426 10.475-1.568 20.951-3.1359 31.426-4.7038-9.856 3.8798-19.712 7.7597-29.568 11.64 6.5956 8.288 13.191 16.576 19.787 24.864z" opacity=".3" style="paint-order:markers stroke fill"/><path d="m239.48 211.06-14.16-11.269c-2.2096 5.6131-4.4193 11.226-6.6289 16.839l2.6789-17.898c-5.9659 0.89297-11.932 1.7859-17.898 2.6789 5.6131-2.2096 11.226-4.4193 16.839-6.6289-3.7563-4.7202-7.5126-9.4403-11.269-14.16 4.7202 3.7563 9.4403 7.5126 14.16 11.269 2.2096-5.6131 4.4193-11.226 6.6289-16.839l-2.6789 17.898 17.898-2.6789c-5.6131 2.2096-11.226 4.4193-16.839 6.6289 3.7563 4.7202 7.5126 9.4403 11.269 14.16z" opacity=".3" style="paint-order:markers stroke fill"/><path d="m478.65 296.66c-7.2339-5.7567-14.468-11.513-21.702-17.27-3.3864 8.6024-6.7728 17.205-10.159 25.807 1.3685-9.1431 2.737-18.286 4.1056-27.429-9.1431 1.3685-18.286 2.737-27.429 4.1056 8.6024-3.3864 17.205-6.7728 25.807-10.159-5.7567-7.2339-11.513-14.468-17.27-21.702 7.2339 5.7567 14.468 11.513 21.702 17.27 3.3864-8.6024 6.7728-17.205 10.159-25.807-1.3685 9.1431-2.737 18.286-4.1056 27.429 9.1431-1.3685 18.286-2.737 27.429-4.1056-8.6024 3.3864-17.205 6.7728-25.807 10.159 5.7567 7.2339 11.513 14.468 17.27 21.702z" opacity=".3" style="paint-order:markers stroke fill"/><path d="m162.33 243.19c-5.9365-4.7242-11.873-9.4485-17.809-14.173-2.779 7.0596-5.558 14.119-8.3371 21.179 1.1231-7.5033 2.2462-15.007 3.3692-22.51-7.5033 1.1231-15.007 2.2462-22.51 3.3692l21.179-8.3371c-4.7242-5.9365-9.4485-11.873-14.173-17.809 5.9365 4.7242 11.873 9.4485 17.809 14.173 2.779-7.0596 5.558-14.119 8.3371-21.179-1.1231 7.5033-2.2462 15.007-3.3692 22.51 7.5033-1.1231 15.007-2.2462 22.51-3.3692l-21.179 8.3371c4.7242 5.9365 9.4485 11.873 14.173 17.809z" opacity=".3" style="paint-order:markers stroke fill"/><path d="m447.69 214.27-14.16-11.269c-2.2096 5.6131-4.4193 11.226-6.6289 16.839 0.89297-5.9659 1.7859-11.932 2.6789-17.898l-17.898 2.6789c5.6131-2.2096 11.226-4.4193 16.839-6.6289-3.7563-4.7202-7.5126-9.4403-11.269-14.16 4.7202 3.7563 9.4403 7.5126 14.16 11.269 2.2096-5.6131 4.4193-11.226 6.6289-16.839l-2.6789 17.898c5.9659-0.89297 11.932-1.7859 17.898-2.6789-5.6131 2.2096-11.226 4.4193-16.839 6.6289 3.7563 4.7202 7.5126 9.4403 11.269 14.16z" opacity=".3" style="paint-order:markers stroke fill"/><path d="m261.98 325.7c-4.7202-3.7563-9.4403-7.5126-14.16-11.269-2.2096 5.6131-4.4193 11.226-6.6289 16.839l2.6789-17.898-17.898 2.6789c5.6131-2.2096 11.226-4.4193 16.839-6.6289-3.7563-4.7202-7.5126-9.4403-11.269-14.16l14.16 11.269c2.2096-5.6131 4.4193-11.226 6.6289-16.839l-2.6789 17.898 17.898-2.6789c-5.6131 2.2096-11.226 4.4193-16.839 6.6289 3.7563 4.7202 7.5126 9.4403 11.269 14.16z" opacity=".3" style="paint-order:markers stroke fill"/><path d="m103.72 310.3c-8.6935-6.9183-17.387-13.837-26.08-20.755-4.0696 10.338-8.1393 20.676-12.209 31.014 1.6447-10.988 3.2893-21.976 4.934-32.964-10.988 1.6446-21.976 3.2893-32.964 4.934 10.338-4.0696 20.676-8.1393 31.014-12.209-6.9183-8.6935-13.837-17.387-20.755-26.08 8.6935 6.9183 17.387 13.837 26.08 20.755l12.209-31.014c-1.6446 10.988-3.2893 21.976-4.934 32.964 10.988-1.6446 21.976-3.2893 32.964-4.934-10.338 4.0696-20.676 8.1393-31.014 12.209 6.9183 8.6935 13.837 17.387 20.755 26.08z" opacity=".3" style="paint-order:markers stroke fill"/></g><path transform="translate(0 157.62)" d="m172.59 151.23c-6.3334 0.05591-12.402 15.522-16.133 21.391-24.6 43.863-49.199 87.725-73.799 131.59-5.7309-5.5682-11.277-11.371-16.807-17.193 0.83771-4.562 2.6795-8.9962 4.1016-13.393 2.6605-5.0668 0.087872-12.973 5.6055-16.062 5.3543-4.7009 11.687 2.8371 16.557-2.4902-0.95606 0.62185-6.1212 3.1298-8.0527 0.41211 0.43083-1.3761 6.2065-3.7245 8.7676-5.3301 2.7223-0.41632 9.4576-4.3193 3.4785-1.5996-6.6336 2.4677 2.3405-3.6349 3.0859-6.5039 2.8668-4.5071-3.1533 4.0235-5.0957 4.6641-2.5493 1.9673-7.4268 5.5062-4.5156 0.0957 1.0396-5.1098-1.1634 5.9342-4.7285 4.9004-3.7081 1.6917-9.2925 1.8141-3.9453-2.3691 2.4886-1.6318 5.3399-7.166 1.7773-2.1016-3.8503 1.6802-6.3448 8.5637-9.8574 6.6191 1.1951-4.3585-2.7409-10.77 2.2578-13.031 3.4537-4.6536 8.0363-0.81481 12.455-0.91602-3.0173-0.66085-9.8282-3.2172-3.8457-5.0527 5.0893-3.7067 9.6597 1.5455 15.068 1.5254 2.8503 0.58571 5.5358 1.1266 1.3047-0.25195-2.4559-1.0502-10.768-3.1488-4.2617-3.3281 5.4657-0.84357 10.105-4.2166 15.656-4.1758 2.2784 0.73273 6.7044-1.0897 2.1719-0.02734-0.87452-0.0662-1.7198-0.31056-2.582-0.45313v-0.00195c-2.7113-0.1219-5.2846 1.0878-1.4902-1.1836 2.7844-1.3716 9.796-10.055 8.2402-8.7031-2.0998 2.3621-7.0764 8.1859-8.7539 6.6816 0.13127-2.1967 2.8191-9.5366 0.58985-3.918-0.36102 5.7767-4.815 7.9505-10.145 8.8652 1.2964-2.5946 7.1475-7.1292 6.9512-7.0918-5.4184 1.2928-7.8184 8.2737-13.451 7.8555-3.5508-0.9308-8.7201 1.1031-10.986 0.28515-0.95793-3.3744 5.7373-8.2667 0.30664-4.1719-2.6106 3.2886-1.4232 7.4119-6.3906 8.6055-3.4185 2.9696-5.053 2.2814-5.1328-2.3145 0.67934-4.5433 5.4052-9.1875 8.2363-13.307 4.6692-4.2212 11.987-2.3985 16.697-6.7363 2.8984-2.5142 6.8182-3.2372 10.115-5.4121 1.5208-1.2304-10.395 5.4285-5.1777 0.51367 1.9132-4.5071 5.0739-6.5246 8.9219-9.2324 1.4587-1.2295 4.6004-3.7503 1.0664-1.1504-2.0722 1.6205-8.1854 6.2974-5.4062 0.73242 0.93634-2.3939 2.0379-13.407 0.92968-6.2578-0.94496 3.8338-2.9184 12.427-5.8379 12.26-0.94605-2.2543 0.84766-11.603-0.3164-4.9238-0.80126 4.5608 1.1118 8.7513-4.2949 11.119-2.2246 1.5761-6.6572 4.0796-5.2598 0.55078-1.6499 2.5025-4.4286 3.543-8.1777 3.3887-1.0299-3.3829 4.3016-8.7973 3.4141-9.8672-2.5723 3.3116-5.0051 7.4809-6.2871 10.83-2.489 1.3374-5.3733 5.1626-5.627-0.19336-0.30129-5.2623 2.5735-11.004-0.88086-15.814-3.2344-4.7004 2.1606 4.1454 0.078125 6.4766-1.5233 5.0522-4.6613 11.382-0.5332 16.064-2.0285 3.5415-4.0463 5.8345-4.8125 0.64258-2.7698-5.7871-5.9173-11.786-0.91211-17.377 0.60153-2.8283-5.1586 8.9988-4.9238 2.0566-2.6674-3.6892 3.0927-11.106 2.4043-10.674-1.6055 2.3304-4.1482 7.1412-3.1289 1.3281-1.5947-3.9269 3.1745-9.9767 4.8691-11.457-2.3075 1.3514-4.3968 4.5332-2.666-0.10742 0.54949-2.0793 2.3086-7.527 0.46094-2.4023-1.3357 2.4186-4.0439 8.4454-4.2031 10.084-0.56375-0.67133-1.2662-1.2729-1.8242-1.8984 1.3727 3.0412 3.0192 5.9605 1.6445 9.6973-0.41785 2.3615 1.5526 7.2154-1.8594 3.7344-2.1925-0.77038-6.7009-2.0052-2.2168-0.14453 3.8983 1.6314 7.1754 8.5183 5.8672 11.293-4.3885 1.6736-1.6525-5.7577-6.5938-6.2207-2.5529-1.7483-5.0352-5.7692-2.0566-0.94336 2.2584 1.4057 7.1996 8.1721 1.4395 6.2031-5.4421-2.6764-9.103-10.05-6.1426-15.697 1.0393-2.8981 1.1773-6.1064-0.3457-1.5703-2.0285 5.2743-0.55473-7.423-1.5645-5.8164 1.7567-2.4351 2.461-6.7218 0.80664-1.8262-2.7395 6.3163-3.2966-4.8328-7.8672-5.0215-4.3432-2.1216 5.8338 3.3876 4.7754 7.3125 0.85502 3.0469 1.0218 6.3813-1.4453 2.0898-1.3806-1.8089-4.0395-3.1956-0.9043-0.67774 3.3147 3.0406 4.0035 10.026 2.7832 12.512-2.294 0.54743-6.7118-4.8037-3.7285-0.71094 4.2347 1.643 5.7542 5.2135 7.7949 8.9238-3.0764-0.95327-6.8296-0.77542-1.6836 0.64453 5.331 2.163 10.668 6.6344 17.082 4.9004 1.739 3.3549 2.093 7.1639-2.541 4.7598-4.5489-1.5889-8.3311-1.0013-11.666-4.1934-2.7976-0.89495-4.8583-3.1267-1.3281 0.08008 3.6578 0.72581 4.7225 4.6462-0.10547 2.9121-3.9247-1.369-6.3298-6.0604-10.881-5.8477 5.8159 1.8484 10.424 10.288 16.508 8.375-2.6992 2.6818-9.5763 0.02889-9.8047 0.68555 5.7449 3.5826 11.871-2.6844 17.131 1.7734 4.0443-0.27232 7.4471 3.2094 5.3184 5.9434-3.6719-0.87072-5.8133-5.885-10.479-5.0976 3.2063-0.66596 10.94 6.0806 4.0547 3.9355-2.3961-0.33501-7.4171-0.85961-8.9414-0.35937 2.2905 0.9624 11.956 2.2281 5.0156 3.6094-1.4717 0.63319 5.3755-1.92 6.9746 0.54688 5.9953 0.35376 5.3584 8.5315 3.9375 11.322-2.8249-0.54632-5.0254-1.2716-4.998-4.5879-0.58191-2.6254-5.9656-5.2991-6.7754-4.5762 4.4329-7e-3 8.7478 10.072 1.9316 6.2383-4.8144-1.3158-12.297-2.1212-9.7617-9.1113 0.01169-2.3011-1.8191 5.6092-1.9688 5.5176-3.4252-1.5148-9.4304-4.297-8.2344-8.5254 2.2391-2.9501-2.6373-11.274-2.9316-9.5762 3.3698 2.0207 1.908 13.071-0.43164 5.9004l-0.99023 2.6348c0.46785 4.0024 6.522 8.3484 6.0742 10.316-2.5675 1.395-10.582-2.2572-4.6074 0.69922 4.6955 1.5958 9.1303-0.49593 13.51 2.709-2.0812 1.8937-12.219 5.5083-4.9727 3.459 4.9536-2.3444 9.5922-3.01 14.512-0.00781 0.28954 2.8889-7.544 2.1936-9.5859 5.2129 4.1123-2.027 9.5569-1.9752 13.461-3.8125 3.6899 1.0219 7.6044 2.017 5.3086 6.5781-1.0951 7.6081-4.2864 14.562-7.1855 21.592-8.6129-9.0258-17.339-17.91-26.803-25.859-14.737-1.6683-35.302 12.135-32.117 28.695v77.082h639.67v-92.582c-5.7292-17.307-32.094-40.735-39.326-11.025-1.1676 3.4701-2.7425 6.5906-4.625 9.3438-0.25445-0.99996-0.34942-2.0154-0.12305-3.0664-0.32249-4.3911 0.71999-8.7067 1.6973-13.018-0.93606-5.1402-0.77103-9.884 4.7109-13.885 3.2469-4.7287 10.971-7.2013 18.395-6.4648 6.5628-1.8898-1.1586 6.6731 2.0898 3.3652 1.7591-4.1921 7.2716-4.3116 12.318-3.998-5.9003-2.0765-14.859-0.47723-19.412-2.8164 2.9888-4.1341 10.595-8.2729 12.768-11.287-5.5568 2.845-10.602 6.0026-15.396 9.3574-6.5545 2.7059-14.167 4.4005-18.229 9.207-0.78633-4.9312-3.1336-10.607 1.2383-15.041 2.9651-5.2758 3.86-10.965 6.0469-16.393-1.0966-6.0627 6.0231-8.9259 10.885-12.498 3.8439-0.65344 11.808-2.1422 12.045-3.1191-7.007 0.68289-13.523 1.9373-19.623 4.0762-0.86199-4.0194-1.7481-8.0731-3.0723-12.055 3.2836-5.3149 6.7309-10.784 5.8086-16.709-3.2e-4 -2.0786 0.29416-10.227-1.2871-4.4805-1.007 5.4607-3.1496 10.823-7.543 15.498-2.5551 4.9023-6.6317 8.355-13.424 10.471-1.6998 3.9657-9.8546 2.303-11.025 4.543-3.0002 0.0784-3.8124-0.02681-4.5859 2.1387 4.3758 0.0274-1.6435 6.5888-2.5859 8.9844-2.5182 1.2735-2.637-5.3974-6.332-6.2852-0.85121-2.0286-3.6172-11.058-2.5859-4.584 1.9554 4.2828-3.3878 3.6695-5.9434 2.8438 5.3186 2.2391 9.6942 4.8453 9.7188 9.6953 2.4437 3.0176 6.8325 5.4871 2.3496 8.541-2.2109 5.365 7.3727 10.349 2.8242 14.934-3.4224 0.94353-2.83-6.4298-3.4102-0.8086 0.32784 3.6011-2.3815 8.9206-6.5918 3.5078-2.179-2.9608-2.5977-9.3495 0.60937-11.029 0.96272 1.6974 7.0287 5.1902 7.4238 4.4668-3.6014-2.0818-3.3742-5.355-7.7949-7.3223-0.51185-4.7761-0.58549-9.8195-4.5352-14.023-2.489-3.1555 1.5312 4.2695 0.66797 5.8457 0.17275 3.8965-0.46082 9.4443-3.8906 11.762-0.25857 4.5754-3.8669 10.483 1.5332 14.734 4.3087 2.4941 5.7799 4.9341 2.0527 8.1172-1.1591 4.103 4.4806 9.5758-0.90039 12.4-6.3745-1.3798-1.3494-10.177-6.7226-9.8418-2.5362 5.3503-3.6445-3.6853-4.998-5.4062-3.1175-3.4219 1.0625 3.9434-0.14453 5.7363 1.3529 4.1073 3.488 8.476 6.5957 12.172 6.4247 3.0197 14.321 4.6732 19.127 9.1191 2.8306 1.2662 1.321 3.7095 1.6934 5.6426 0.46242 3.4646-0.76771 8.5901 2.8867 11.162-10.483 0.33819-20.987-5.2935-26.93-18.145-15.073-22.196-23.663-48.057-30.393-73.83-15.717 21.381-31.432 42.762-47.148 64.143-18.694-32.38-37.39-64.759-56.084-97.139-22.253 44.582-44.505 89.164-66.758 133.75-15.056-29.359-28.468-59.725-44.58-88.438-5.0675 13.093-12.156 34.885-18.518 49.627-5.9632 21.067-9.1415 46.684-26.412 61.582 0.06775-0.69941 0.17014-1.5876 0.30859-2.8008 1.6124-14.129 1.7115-17.833 0.60156-22.41-0.25272-1.042-0.41828-2.4514-0.36718-3.1309l0.09375-1.2344 3.3984 3.4219c1.8688 1.8819 4.6474 4.7815 6.2891 6.3281l0.80664 0.76172 0.90625-0.68359c0.49773-0.3758 0.91287-0.74858 0.92187-0.83008 0.00897-0.08157-1.2367-1.3821-5.3125-5.5117l-7.4102-7.5078-0.14258-4.5039c-0.11861-3.7556-0.29626-5.068-1.0684-7.8926l-0.92578-3.3887 1.2226-1.7578c0.67211-0.96764 1.6452-2.6253 2.1621-3.6816l0.93946-1.9199-1.3594-1.3594c-3.1201-3.1212-3.92-3.6107-6.2812-3.8438-2.4406-0.24089-3.6531 0.37965-5.1465 2.6367-0.68081 1.029-1.9436 2.8278-2.8066 3.9961-1.0932 1.4799-1.6783 2.6264-1.9316 3.7812-0.19996 0.91168-0.45593 1.6582-0.56835 1.6582-0.20527 0-7.4615-7.3674-12.385-12.574l-2.6367-2.7891-1.1621 1.0684c-0.63973 0.58707-1.1641 1.1765-1.1641 1.3105 0 0.13398-1.4548 2.0867-3.2324 4.3379-10.486 13.279-8.7576 13.447-6.6172 22.328l0.76172 3.1602s0.4083-2.4148 0.6914-3.6055c0.85914-3.6131-0.73139-5.4944 3.0508-10.715 3.8485-5.312 9.0811-10.553 10.402-10.418 0.4639 0.04729 1.9862 1.3426 4.2539 3.6152 1.9428 1.947 4.4404 4.4378 5.5508 5.5371 1.581 1.5652 1.9388 2.0779 1.6445 2.3594-0.54712 0.73843-0.70882 1.4705-1.2832 2.3906-0.24122 0.53019-0.52015 1.0317-0.61915 1.1133-0.09897 0.08157-0.37991 0.48083-0.62304 0.88867-3.0308 5.0841-2.9687 6.0657 0.42969 6.793 1.2778 0.27346 1.7191 0.49131 1.5996 0.78906-0.0907 0.22602-0.46038 2.5161-0.82032 5.0898-0.35995 2.5737-1.1324 6.7487-1.7188 9.2773s-1.2096 5.5987-1.3848 6.8223c-0.4008 2.7995-2.1449 9.3277-3.1699 11.865-0.3159 0.78205-0.51232 1.2382-0.73046 1.5371-12.203-7.8984-19.548-25.888-23.869-38.943-13.088-37.525-14.679-77.918-26.918-115.6-2.0933-4.3319-4.2326-6.0264-6.3438-6.0078zm380.29 39.287c-0.38884-0.1637-0.77024-0.32975-1.168-0.49023 0.19866 0.14725 0.64465 0.32114 1.168 0.49023zm-494.96 1.7734c-0.31891-0.70655-0.62771-1.4187-0.875-2.1504-0.11416 0.82778 0.29865 1.5044 0.875 2.1504zm8.2324-5.6758c0.20464-0.11986 0.40966-0.23018 0.61523-0.31445 0.025173-0.18763-0.24688-0.00733-0.61523 0.31445zm24.518 24.596c0.64355-0.97614 1.1076-2.1819 1.3984-3.6191-0.52419 0.8598-0.97615 1.8107-0.875 2.5-0.23486 0.43408-0.39451 0.79357-0.52344 1.1191zm1.3984-3.6191c1.0932-1.7931 2.5304-3.1524 0.12695-0.65625-0.035504 0.22686-0.083238 0.44023-0.12695 0.65625zm0.050782 47.479c0.15-0.09756 0.21404-0.15599 0.12695-0.13281-0.041864 0.04798-0.084869 0.08677-0.12695 0.13281zm503.19-72.645c0.87698 1.2124 0.27525 5.5209-0.28711 7.5273-3.526 5.934-7.4171 11.791-10.188 17.938-1.2648 1.7414-4.5723 10.652-7.9336 6.5488-4.635-3.6346 0.98019-8.1316-3.9238-11.863-2.2318-2.1955-0.09211-4.8959-0.07031-7.3145 1.3939-3.7504-1.6053-8.0075 6.3652-7.7207 6.0879-0.64631 11.087-2.9444 16.037-5.1152zm-24.578 41.352c0.76647 0.00488 1.3909 0.58394 1.7246 2.1738 1.5159 2.1841 4.0475 4.1851 3.2129 6.7539-0.78563 6.1121 0.80126 12.725-3.209 18.408-0.94002-0.23511-1.7596-0.63399-2.5938-1-3.1697-2.5504-3.9822-7.0936-5.3086-10.266 4.3889-3.8624 1.8543-8.8531 1.8477-13.324 1.3758-1.1666 3.0487-2.7542 4.3262-2.7461z" opacity=".3" stroke-width=".071049"/><path d="m573.87 325.3c-3.4014-2.7068-6.8028-5.4136-10.204-8.1205-1.5923 4.0449-3.1846 8.0897-4.7768 12.135 0.64348-4.2991 1.287-8.5982 1.9304-12.897l-12.897 1.9304c4.0449-1.5923 8.0897-3.1846 12.135-4.7768-2.7068-3.4014-5.4136-6.8028-8.1205-10.204 3.4014 2.7068 6.8028 5.4136 10.204 8.1205 1.5923-4.0449 3.1846-8.0897 4.7768-12.135l-1.9304 12.897c4.2991-0.64348 8.5982-1.287 12.897-1.9304-4.0449 1.5923-8.0898 3.1846-12.135 4.7768 2.7068 3.4014 5.4136 6.8028 8.1205 10.204z" fill="#878787" opacity=".3" style="paint-order:markers stroke fill"/></g></svg>
