<svg version="1.1" viewBox="0 0 800 800" xmlns="http://www.w3.org/2000/svg"><defs><clipPath id="aj"><path d="m0 0h800v800h-800z"/></clipPath><linearGradient id="p" x2="1" gradientTransform="matrix(0 608.27 608.27 0 400 216.87)" gradientUnits="userSpaceOnUse"><stop stop-color="#ff721e" offset="0"/><stop stop-color="#ff721e" offset=".29883"/><stop stop-color="#5a1447" offset="1"/></linearGradient><clipPath id="ap"><path d="m290.67 291.15c0-1.436 4.46-2.739 11.716-3.704-41.23-0.856-71.1-3.375-71.1-6.351 0-1.596 8.599-3.06 22.932-4.207-40.241-3.481-66.881-9.537-66.881-16.427 0-5.913 19.622-11.212 50.625-14.796-4.309-1.475-6.676-3.076-6.676-4.748 0-7.359 45.7-13.325 102.07-13.325 56.373 0 102.07 5.966 102.07 13.325 0 1.672-2.367 3.273-6.676 4.748 31.003 3.584 50.625 8.883 50.625 14.796 0 6.89-26.639 12.946-66.881 16.427 14.333 1.147 22.932 2.611 22.932 4.207 0 2.976-29.871 5.495-71.1 6.351 7.256 0.965 11.716 2.268 11.716 3.704 0 2.975-19.113 5.387-42.689 5.387-23.577 0-42.69-2.412-42.69-5.387"/></clipPath><mask id="h" x="0" y="0" width="1" height="1" maskUnits="userSpaceOnUse"><g clip-path="url(#ao)"><path d="m-32768 32767h65535v-65535h-65535z" fill="url(#t)"/></g></mask><clipPath id="ao"><path d="m-32768 32767h65535v-65535h-65535z"/></clipPath><linearGradient id="t" x2="1" gradientTransform="matrix(0 69.566 69.566 0 333.36 227.59)" gradientUnits="userSpaceOnUse"><stop stop-color="#fff" stop-opacity="0" offset="0"/><stop stop-color="#fff" offset=".96414"/><stop stop-color="#fff" offset="1"/></linearGradient><linearGradient id="s" x2="1" gradientTransform="matrix(0 69.566 69.566 0 333.36 227.59)" gradientUnits="userSpaceOnUse"><stop stop-color="#ff721e" offset="0"/><stop stop-color="#fff28f" offset=".96414"/><stop stop-color="#fff28f" offset="1"/></linearGradient><clipPath id="an"><path d="m0 800h800v-800h-800z"/></clipPath><clipPath id="am"><path d="m164.04 623.26h338.65v-338.65h-338.65z"/></clipPath><clipPath id="al"><path d="m502.69 453.93c0-93.517-75.81-169.33-169.33-169.33-93.517 0-169.33 75.81-169.33 169.33s75.81 169.33 169.33 169.33c93.516 0 169.33-75.81 169.33-169.33"/></clipPath><mask id="g" x="0" y="0" width="1" height="1" maskUnits="userSpaceOnUse"><g clip-path="url(#ak)"><path d="m-32768 32767h65535v-65535h-65535z" fill="url(#b)"/></g></mask><clipPath id="ak"><path d="m-32768 32767h65535v-65535h-65535z"/></clipPath><radialGradient id="b" cx="0" cy="0" r="1" gradientTransform="matrix(169.33 0 0 -169.33 333.36 453.93)" gradientUnits="userSpaceOnUse"><stop stop-color="#fff" stop-opacity="0" offset="0"/><stop stop-color="#fff" stop-opacity="0" offset=".27396"/><stop stop-color="#fff" offset="1"/></radialGradient><radialGradient id="a" cx="0" cy="0" r="1" gradientTransform="matrix(169.33 0 0 -169.33 333.36 453.93)" gradientUnits="userSpaceOnUse"><stop stop-color="#ff721e" offset="0"/><stop stop-color="#ff721e" offset=".27396"/><stop stop-color="#fff28f" offset="1"/></radialGradient><clipPath id="ai"><path d="m208.3 579h250.13v-250.13h-250.13z"/></clipPath><clipPath id="ah"><path d="m458.43 453.93c0-69.073-55.995-125.07-125.07-125.07-69.073 0-125.07 55.994-125.07 125.07s55.994 125.07 125.07 125.07c69.072 0 125.07-55.994 125.07-125.07"/></clipPath><mask id="f" x="0" y="0" width="1" height="1" maskUnits="userSpaceOnUse"><g clip-path="url(#ag)"><path d="m-32768 32767h65535v-65535h-65535z" fill="url(#r)"/></g></mask><clipPath id="ag"><path d="m-32768 32767h65535v-65535h-65535z"/></clipPath><linearGradient id="r" x2="1" gradientTransform="matrix(0 252.38 252.38 0 333.36 328.87)" gradientUnits="userSpaceOnUse"><stop stop-color="#fff" stop-opacity="0" offset="0"/><stop stop-color="#fff" offset=".46141"/><stop stop-color="#fff" offset="1"/></linearGradient><linearGradient id="q" x2="1" gradientTransform="matrix(0 252.38 252.38 0 333.36 328.87)" gradientUnits="userSpaceOnUse"><stop stop-color="#ff721e" offset="0"/><stop stop-color="#fff28f" offset=".46141"/><stop stop-color="#fff28f" offset="1"/></linearGradient><clipPath id="af"><path d="m-0.089203 430.51h800.22v-135.78h-800.22z"/></clipPath><clipPath id="ae"><path d="m800.13 294.73h-800.22v135.78h800.22z"/></clipPath><mask id="e" x="0" y="0" width="1" height="1" maskUnits="userSpaceOnUse"><g clip-path="url(#ad)"><path d="m-32768 32767h65535v-65535h-65535z" fill="url(#o)"/></g></mask><clipPath id="ad"><path d="m-32768 32767h65535v-65535h-65535z"/></clipPath><linearGradient id="o" x2="1" gradientTransform="matrix(0 -139.1 -139.1 0 400.02 433.47)" gradientUnits="userSpaceOnUse"><stop stop-color="#fff" stop-opacity="0" offset="0"/><stop stop-color="#fff" stop-opacity="0" offset=".45179"/><stop stop-color="#fff" offset="1"/></linearGradient><linearGradient id="n" x2="1" gradientTransform="matrix(0 -139.1 -139.1 0 400.02 433.47)" gradientUnits="userSpaceOnUse"><stop stop-color="#fff9ca" offset="0"/><stop stop-color="#fff9ca" offset=".45179"/><stop stop-color="#fff5a3" offset="1"/></linearGradient><clipPath><path d="m724.02 272.67z"/></clipPath><clipPath id="ab"><path d="m0.12891 515.72h432.04v-90.289h-432.04z"/></clipPath><clipPath id="aa"><path d="m0.129 425.44h432.04c-11.241 1.594-22.846 6.319-34.027 5.999-9.445-0.27-20.665-3.874-28.973 2.437-5.342 4.058-8.886 12.028-15.586 11.71-6.779-0.322-10.644-9.417-17.426-9.664-5.814-0.211-9.885 6.217-15.622 7.178-6.756 1.132-12.747-5.62-19.582-5.179-5.947 0.384-10.173 6.085-12.074 11.733s-2.398 11.811-5.254 17.041c-2.856 5.231-9.401 9.283-14.738 6.632-4.79-2.378-5.97-8.481-7.734-13.53s-6.661-10.448-11.563-8.311c-5.309 2.315-5.847 11.855-11.638 11.965-4.04 0.077-6.053-4.706-8.95-7.523-10.13-9.851-25.112 2.424-30.032 11.527-3.771 6.976-5.805 14.778-9.492 21.798-3.687 7.021-9.691 13.56-17.529 14.768-8.168 1.259-16.324-3.776-20.951-10.624s-6.358-15.215-7.508-23.4c-0.441-3.133-0.831-6.344-2.229-9.183-4.961-10.07-15.946-1.929-20.72 4.144-4.235 5.388-8.268 13.822-15.943 14.362-7.215 0.508-12.008-6.136-16.461-10.758-8.24-8.555-19.716-1.069-24.291 7.495-2.963 5.546-5.767 11.177-8.405 16.885-2.496 5.4-4.902 10.959-8.798 15.455-3.897 4.495-9.64 7.84-15.561 7.269-6.789-0.656-12.077-6.112-15.985-11.702-5.957-8.523-10.232-18.208-12.579-28.336-1.096-4.73-2.388-14.301-2.388-14.301v-14.963z"/></clipPath><mask id="d" x="0" y="0" width="1" height="1" maskUnits="userSpaceOnUse"><g clip-path="url(#z)"><path d="m-32768 32767h65535v-65535h-65535z" fill="url(#l)"/></g></mask><clipPath id="z"><path d="m-32768 32767h65535v-65535h-65535z"/></clipPath><linearGradient id="l" x2="1" gradientTransform="matrix(-266.75 0 0 266.75 338.72 470.58)" gradientUnits="userSpaceOnUse"><stop stop-color="#fff" offset="0"/><stop stop-color="#fff" stop-opacity="0" offset="1"/></linearGradient><linearGradient id="k" x2="1" gradientTransform="matrix(-266.75 0 0 266.75 338.72 470.58)" gradientUnits="userSpaceOnUse"><stop stop-color="#fff9ca" offset="0"/><stop stop-color="#fff" offset="1"/></linearGradient><clipPath id="x"><path d="m368.09 458.41h432.04v-69.002h-432.04z"/></clipPath><clipPath id="w"><path d="m800.13 389.41h-432.04c6.771 0 14.024 3.212 20.635 4.523 3.295 0.653 13.641-0.119 15.692 2.89 1.032 1.518 1.387 3.522 2.794 4.7 2.196 1.839 5.575 0.639 7.878-1.063 2.304-1.701 4.531-3.938 7.39-4.096 6.117-0.336 8.406 8.253 13.746 11.255 5.557 3.125 12.336-0.649 17.539-4.332 5.203-3.684 11.902-7.535 17.527-4.535 4.6 2.453 7.114 9.012 12.326 8.981 2.643-0.016 4.875-1.849 7.313-2.867 3.9-1.629 8.637-1.056 12.036 1.454 5.423 4.004 6.593 11.434 8.764 17.815 2.172 6.382 7.654 13.194 14.22 11.672 5.603-1.298 8.021-7.683 10.472-12.886s7.911-10.673 13.109-8.211c4.14 1.961 6.002 10.009 11.152 9.373 4.075-0.503 5.816-7.194 10.025-8.305 3.224-0.851 6.534 1.557 8.094 4.505 1.559 2.948 1.889 6.365 2.704 9.599 2.302 9.143 8.946 17.19 17.671 20.763s19.337 2.399 26.807-3.353c5.935-4.569 9.579-11.462 14.767-16.865 5.187-5.403 13.476-9.334 20.076-5.795 4.105 2.201 6.38 6.66 9.605 10.02 6.779 7.061 18.154 8.076 26.691 3.828 7.678-3.821 15.989-13.151 25.52-8.534 4.622 2.239 6.883 7.387 9.723 11.666 7.157 10.781 20.194 17.379 33.12 16.76 19.252-0.921 32.212-15.074 34.643-33.075v-14.963z"/></clipPath><mask id="c" x="0" y="0" width="1" height="1" maskUnits="userSpaceOnUse"><g clip-path="url(#v)"><path d="m-32768 32767h65535v-65535h-65535z" fill="url(#j)"/></g></mask><clipPath id="v"><path d="m-32768 32767h65535v-65535h-65535z"/></clipPath><linearGradient id="j" x2="1" gradientTransform="matrix(-167.2 0 0 167.2 649.73 423.91)" gradientUnits="userSpaceOnUse"><stop stop-color="#fff" stop-opacity="0" offset="0"/><stop stop-color="#fff" offset="1"/></linearGradient><linearGradient id="i" x2="1" gradientTransform="matrix(-167.2 0 0 167.2 649.73 423.91)" gradientUnits="userSpaceOnUse"><stop stop-color="#fff" offset="0"/><stop stop-color="#fff9ca" offset="1"/></linearGradient><clipPath id="ac"><path d="m0.02 0h799.98v294.73h-799.98z"/></clipPath><linearGradient id="m" x2="1" gradientTransform="matrix(0 -281.68 -281.68 0 400.02 307.43)" gradientUnits="userSpaceOnUse"><stop stop-color="#fdac4a" offset="0"/><stop stop-color="#fd8c4a" offset=".1048"/><stop stop-color="#472b67" offset=".50438"/><stop stop-color="#472b67" offset=".91703"/><stop stop-color="#5c3c68" offset=".97277"/><stop stop-color="#5c3c68" offset="1"/></linearGradient><clipPath id="y"><path d="m0 800h800v-800h-800z"/></clipPath><clipPath id="u"><path d="m-0.12882 295.92h800.15v-99.942h-800.15z"/></clipPath></defs><g transform="translate(0 282.38)"><g transform="matrix(.99968 0 0 -1 .12895 517.62)" opacity=".5"><g clip-path="url(#aj)" style=""><g style=""><g style=""><path d="m0 0h800v800h-800z" fill="url(#p)"/></g></g></g></g><g transform="matrix(.99968 0 0 -1 .12895 517.62)" opacity=".5"><g clip-path="url(#ap)" style=""><g style=""><g mask="url(#h)" style=""><g style=""><path d="m290.67 291.15c0-1.436 4.46-2.739 11.716-3.704-41.23-0.856-71.1-3.375-71.1-6.351 0-1.596 8.599-3.06 22.932-4.207-40.241-3.481-66.881-9.537-66.881-16.427 0-5.913 19.622-11.212 50.625-14.796-4.309-1.475-6.676-3.076-6.676-4.748 0-7.359 45.7-13.325 102.07-13.325 56.373 0 102.07 5.966 102.07 13.325 0 1.672-2.367 3.273-6.676 4.748 31.003 3.584 50.625 8.883 50.625 14.796 0 6.89-26.639 12.946-66.881 16.427 14.333 1.147 22.932 2.611 22.932 4.207 0 2.976-29.871 5.495-71.1 6.351 7.256 0.965 11.716 2.268 11.716 3.704 0 2.975-19.113 5.387-42.689 5.387-23.577 0-42.69-2.412-42.69-5.387" fill="url(#s)"/></g></g></g></g></g><g transform="matrix(1.485 0 0 -1.3348 -79.484 723.91)" opacity=".5"><g clip-path="url(#an)" style=""><g style=""><g style=""><g clip-path="url(#am)" opacity=".2"><g style=""><g clip-path="url(#al)" style=""><g style=""><g mask="url(#g)" style=""><g style=""><path d="m502.69 453.93c0-93.517-75.81-169.33-169.33-169.33-93.517 0-169.33 75.81-169.33 169.33s75.81 169.33 169.33 169.33c93.516 0 169.33-75.81 169.33-169.33" fill="url(#a)"/></g></g></g></g></g></g></g></g><g style=""><g style=""><g clip-path="url(#ai)" opacity=".3"><g style=""><g clip-path="url(#ah)" style=""><g style=""><g mask="url(#f)" style=""><g style=""><path d="m458.43 453.93c0-69.073-55.995-125.07-125.07-125.07-69.073 0-125.07 55.994-125.07 125.07s55.994 125.07 125.07 125.07c69.072 0 125.07-55.994 125.07-125.07" fill="url(#q)"/></g></g></g></g></g></g></g></g></g></g><g transform="matrix(.99968 0 0 -1 362.68 218.37)" opacity=".5"><path d="m0 0c13.455 0 29.576-4.357 41.775 1.973-5.35 7.341-13.386 14.677-22.618 16.325-4.273 0.763-9.012 0.388-12.546 2.908-1.502 1.072-2.636 2.582-4.061 3.754-3.025 2.486-7.171 3.26-11.073 2.934-5.435-0.453-10.033-3.492-15.287-3.912-5.567-0.444-11.413 2.007-16.85 2.876-6.816 1.088-13.876 0.611-20.483-1.384-7.659-2.314-15.86-6.635-23.151-3.341-1.494 0.674-4.532 4.35-5.596 5.729-1.348 1.747-1.937 4.058-3.572 5.539-3.026 2.743-7.755 1.347-11.832 1.589-7.551 0.448-13.831 7.207-17.124 13.559-1.435 2.768-1.874 5.607-3.673 8.127-2.109 2.954-5.597 4.3-7.07 7.877-0.906 2.2-0.924 4.646-1.285 6.997-2.73 17.78-17.911 15.285-31.185 15.28-2.745 0-9.48-1.255-11.899 0.112-3.55 2.006-5.048 8.903-8.846 11.824-1.476 1.136-3.112 2.092-4.376 3.46-3.039 3.292-3.539 8.529-7.042 11.323-3.71 2.959-9.176 1.963-13.598 3.686-2.128 0.829-3.952 2.267-5.876 3.498-6.821 4.366-17.026 2.978-21.617 8.418-5.354 6.344-7.649 14.757-13.642 20.832-6.036 6.119-15.56 5.447-22.973 2.559-9.054-3.529-13.365-12.311-21.839-15.883-3.268-1.378-6.897-1.579-10.442-1.647-5.289-0.102-10.708 0.076-15.637 1.993-4.632 1.801-8.546 5.023-12.814 7.568-4.554 2.716-19.359 10.013-24.706 6.751-2.607-1.589-1.711-6.396-1.711-9.278v-24.298-66.75-52.835c16.005 0.014 32.01 0.029 48.015 0.044 36.644 0.034 73.288 0.067 109.93 0.101l120.68 0.111c27.965 0.026 56.033 1.801 84.025 1.581" fill="#421936"/></g><g transform="matrix(.99968 0 0 -1 799.89 220.21)" opacity=".5"><path d="m0 0v57.291c-5.072 5.469-10.018 11.213-15.443 16.331-7.338 6.922-12.914 15.531-20.767 21.943-3.488 2.848-8.186 5.378-12.308 3.566-3.186-1.401-4.903-4.977-7.928-6.699-6.453-3.674-14.129 2.885-17.264 9.616-3.136 6.731-5.087 14.912-11.587 18.502-7.285 4.024-16.481-0.021-22.754-5.491-6.273-5.469-11.494-12.51-19.123-15.838-12.635-5.513-18.023 5.122-25.869 12.132-8.984 8.027-17.601 15.755-30.216 16.669-9.212 0.668-24.375 2.48-31.81-4.518-9.596-9.013-24.595-34.836-24.596-34.837-1.837-3.163-13.418-5.69-16.728-7.311-9.369-4.587-8.5-11.055-15.653-17.039-3.942-3.296-11.479-2.302-13.011-7.208-0.571-1.831 0.052-3.89-0.59-5.698-1.096-3.084-5.461-3.821-8.335-2.257-2.875 1.565-4.585 4.596-6.145 7.474-6.023 11.113-7.672 14.292-19.607 17.234-9.472 2.335-19.315 4.711-29.134 4.633-29.422-0.237-43.406-45.616-43.406-45.616l-100.43-32.541z" fill="#421936"/></g><g transform="matrix(.99968 0 0 -1 .12895 517.62)" opacity=".5"><g clip-path="url(#af)" opacity=".5"><g style=""><g clip-path="url(#ae)" style=""><g style=""><g mask="url(#e)" style=""><g style=""><path d="m800.13 294.73h-800.22v135.78h800.22z" fill="url(#n)"/></g></g></g></g></g></g></g><g transform="matrix(.99968 0 0 -1 .12895 517.62)" opacity=".5"><g style=""></g></g><g transform="matrix(.99968 0 0 -1 47.641 -10.875)" opacity=".5"><path d="m0 0c3.217 0 3.223 5 0 5-3.217 0-3.223-5 0-5" fill="#fff5a6"/></g><path d="m750.55-155.5c2.4122 0 2.4162-3.75 0-3.75-2.4122 0-2.4162 3.75 0 3.75" fill="#fff5a6" opacity=".5"/><g transform="matrix(.99968 0 0 -1 683.7 -104.88)" opacity=".5"><path d="m0 0c3.217 0 3.223 5 0 5-3.217 0-3.223-5 0-5" fill="#fff5a6"/></g><g transform="matrix(.99968 0 0 -1 316.96 -146.88)" opacity=".5"><path d="m0 0c3.217 0 3.223 5 0 5-3.217 0-3.223-5 0-5" fill="#fff5a6"/></g><g transform="matrix(.99968 0 0 -1 450.04 49.544)" opacity=".5"><path d="m0 0c3.217 0 3.223 5 0 5-3.217 0-3.223-5 0-5" fill="#fff5a6"/></g><g transform="matrix(.99968 0 0 -1 553.62 -21.5)" opacity=".5"><path d="m0 0c2.413 0 2.417 3.75 0 3.75-2.413 0-2.417-3.75 0-3.75" fill="#fff5a6"/></g><g transform="matrix(.99968 0 0 -1 184.19 88.717)" opacity=".5"><path d="m0 0c3.217 0 3.223 5 0 5-3.217 0-3.223-5 0-5" fill="#fff5a6"/></g><g transform="matrix(.99968 0 0 -1 750.55 6.7644)" opacity=".5"><path d="m0 0c3.217 0 3.223 5 0 5-3.217 0-3.223-5 0-5" fill="#fff5a6"/></g><g transform="matrix(.99968 0 0 -1 553.62 -154.88)" opacity=".5"><path d="m0 0c3.217 0 3.223 5 0 5-3.217 0-3.223-5 0-5" fill="#fff5a6"/></g><g transform="matrix(.99968 0 0 -1 172.42 -109.27)" opacity=".5"><path d="m0 0c3.217 0 3.223 5 0 5-3.217 0-3.223-5 0-5" fill="#fff5a6"/></g><g transform="matrix(.99968 0 0 -1 65.923 -96.625)" opacity=".5"><path d="m0 0c3.217 0 3.223 5 0 5-3.217 0-3.223-5 0-5" fill="#fff5a6"/></g><g transform="matrix(.99968 0 0 -1 129.59 -47.5)" opacity=".5"><path d="m0 0c2.413 0 2.417 3.75 0 3.75-2.413 0-2.417-3.75 0-3.75" fill="#fff5a6"/></g><g transform="matrix(.99968 0 0 -1 653.25 48.919)" opacity=".5"><path d="m0 0c2.413 0 2.417 3.75 0 3.75-2.413 0-2.417-3.75 0-3.75" fill="#fff5a6"/></g><g transform="matrix(.99968 0 0 -1 28.249 -226.02)" opacity=".5"><path d="m0 0c1.609 0 1.611 2.5 0 2.5-1.609 0-1.611-2.5 0-2.5" fill="#fff5a6"/></g><g transform="matrix(.99968 0 0 -1 442.83 -37.414)" opacity=".5"><path d="m0 0c1.609 0 1.611 2.5 0 2.5-1.609 0-1.611-2.5 0-2.5" fill="#fff5a6"/></g><g transform="matrix(.99968 0 0 -1 723.92 80.115)" opacity=".5"><path d="m0 0c1.609 0 1.611 2.5 0 2.5-1.609 0-1.611-2.5 0-2.5" fill="#fff5a6"/></g><g transform="matrix(.99968 0 0 -1 191.09 94.967)" opacity=".5"><path d="m0 0c1.609 0 1.611 2.5 0 2.5-1.609 0-1.611-2.5 0-2.5" fill="#fff5a6"/></g><g transform="matrix(.99968 0 0 -1 777.5 -235.02)" opacity=".5"><path d="m0 0c1.609 0 1.611 2.5 0 2.5-1.609 0-1.611-2.5 0-2.5" fill="#fff5a6"/></g><g transform="matrix(.99968 0 0 -1 753.8 94.967)" opacity=".5"><path d="m0 0c1.609 0 1.611 2.5 0 2.5-1.609 0-1.611-2.5 0-2.5" fill="#fff5a6"/></g><g transform="matrix(.99968 0 0 -1 799.89 108.31)" opacity=".5"><path d="m0 0s-37.29-23.175-42.29-36.087c-5-12.913-10.073-22.868-19.036-23.891-8.964-1.022-19.865 5.978-28.414 5.978-13.043 0-29.844-16.805-41.817-6.146-2.51 2.234-4.004 5.364-6.033 8.042-10.065 13.281-32.209 12.005-44.274 0.51-4.673-4.452-8.181-10.018-12.902-14.418-4.722-4.401-11.357-7.631-17.557-5.839-6.645 1.921-10.936 9.012-17.686 10.522-7.618 1.705-15.105-4.825-17.366-12.297-0.717-2.369-1.422-5.266-3.78-6.016-2.441-0.777-4.725 1.337-6.964 2.581-10.096 5.609-12.172-5.218-16.532-11.04-15.416-20.588-30.506 18.938-37.141 25.171-4.17 3.917-10.406 5.496-15.937 4.035-5.531-1.46-10.174-5.911-11.867-11.375-4.002-12.919-7.097-12.436-19.384-7.241-5.931 2.508-13.084 1.887-18.493-1.605-2.261-1.46-4.312-3.55-4.836-6.189-0.365-1.836 0.037-3.795-0.565-5.567-1.07-3.144-4.9-4.489-8.213-4.27-3.314 0.219-6.467 1.544-9.77 1.89-4.565 0.479-9.304-1.031-12.764-4.071-6.23-5.468-22.787-3.273-30.872-3.558-13.635-0.48-27.27-0.961-40.904-1.441-18.195-0.641-36.389-1.283-54.584-1.924-13.183-0.464-26.162 3.358-36.989 10.894l-32.03 22.293h-24.29s-14 13.059-18 17.059-8 10.825-19 17.913c-11 7.087-20 6.912-28 0-8-6.913-16-7.913-22-6.913s-28.112 23-28.112 23l-2.507 1.062c-8.258 3.497-17.653 1.495-24.18-4.656-1.69-1.593-3.486-2.607-5.201-2.321-6 1-19.71 4.915-19.71 4.915v-93.582h800z" fill="#220d27"/></g><g transform="matrix(.99968 0 0 -1 .12895 517.62)" opacity=".5"><g style=""><g clip-path="url(#ab)" opacity=".5"><g style=""><g clip-path="url(#aa)" style=""><g style=""><g mask="url(#d)" style=""><g style=""><path d="m0.129 425.44h432.04c-11.241 1.594-22.846 6.319-34.027 5.999-9.445-0.27-20.665-3.874-28.973 2.437-5.342 4.058-8.886 12.028-15.586 11.71-6.779-0.322-10.644-9.417-17.426-9.664-5.814-0.211-9.885 6.217-15.622 7.178-6.756 1.132-12.747-5.62-19.582-5.179-5.947 0.384-10.173 6.085-12.074 11.733s-2.398 11.811-5.254 17.041c-2.856 5.231-9.401 9.283-14.738 6.632-4.79-2.378-5.97-8.481-7.734-13.53s-6.661-10.448-11.563-8.311c-5.309 2.315-5.847 11.855-11.638 11.965-4.04 0.077-6.053-4.706-8.95-7.523-10.13-9.851-25.112 2.424-30.032 11.527-3.771 6.976-5.805 14.778-9.492 21.798-3.687 7.021-9.691 13.56-17.529 14.768-8.168 1.259-16.324-3.776-20.951-10.624s-6.358-15.215-7.508-23.4c-0.441-3.133-0.831-6.344-2.229-9.183-4.961-10.07-15.946-1.929-20.72 4.144-4.235 5.388-8.268 13.822-15.943 14.362-7.215 0.508-12.008-6.136-16.461-10.758-8.24-8.555-19.716-1.069-24.291 7.495-2.963 5.546-5.767 11.177-8.405 16.885-2.496 5.4-4.902 10.959-8.798 15.455-3.897 4.495-9.64 7.84-15.561 7.269-6.789-0.656-12.077-6.112-15.985-11.702-5.957-8.523-10.232-18.208-12.579-28.336-1.096-4.73-2.388-14.301-2.388-14.301v-14.963z" fill="url(#k)"/></g></g></g></g></g></g></g></g><g transform="matrix(.99968 0 0 -1 .12895 517.62)" opacity=".5"><g style=""><g clip-path="url(#x)" opacity=".5"><g style=""><g clip-path="url(#w)" style=""><g style=""><g mask="url(#c)" style=""><g style=""><path d="m800.13 389.41h-432.04c6.771 0 14.024 3.212 20.635 4.523 3.295 0.653 13.641-0.119 15.692 2.89 1.032 1.518 1.387 3.522 2.794 4.7 2.196 1.839 5.575 0.639 7.878-1.063 2.304-1.701 4.531-3.938 7.39-4.096 6.117-0.336 8.406 8.253 13.746 11.255 5.557 3.125 12.336-0.649 17.539-4.332 5.203-3.684 11.902-7.535 17.527-4.535 4.6 2.453 7.114 9.012 12.326 8.981 2.643-0.016 4.875-1.849 7.313-2.867 3.9-1.629 8.637-1.056 12.036 1.454 5.423 4.004 6.593 11.434 8.764 17.815 2.172 6.382 7.654 13.194 14.22 11.672 5.603-1.298 8.021-7.683 10.472-12.886s7.911-10.673 13.109-8.211c4.14 1.961 6.002 10.009 11.152 9.373 4.075-0.503 5.816-7.194 10.025-8.305 3.224-0.851 6.534 1.557 8.094 4.505 1.559 2.948 1.889 6.365 2.704 9.599 2.302 9.143 8.946 17.19 17.671 20.763s19.337 2.399 26.807-3.353c5.935-4.569 9.579-11.462 14.767-16.865 5.187-5.403 13.476-9.334 20.076-5.795 4.105 2.201 6.38 6.66 9.605 10.02 6.779 7.061 18.154 8.076 26.691 3.828 7.678-3.821 15.989-13.151 25.52-8.534 4.622 2.239 6.883 7.387 9.723 11.666 7.157 10.781 20.194 17.379 33.12 16.76 19.252-0.921 32.212-15.074 34.643-33.075v-14.963z" fill="url(#i)"/></g></g></g></g></g></g></g></g><g transform="matrix(.99968 0 0 -1 .12895 517.62)" opacity=".5"><g clip-path="url(#ac)" style=""><g style=""><g style=""><path d="m0.02 0h799.98v294.73h-799.98z" fill="url(#m)"/></g></g></g></g><g transform="matrix(.99968 0 0 -1 .12895 517.62)" opacity=".5"><g clip-path="url(#y)" style=""><g style=""><g style=""><g clip-path="url(#u)" opacity=".39999"><g transform="translate(362.67 293.08)" style=""><path d="m0 0c13.455 0 29.576 2.735 41.775-1.238-5.35-4.609-13.386-9.215-22.618-10.249-4.273-0.479-9.012-0.243-12.546-1.826-1.502-0.672-2.636-1.62-4.061-2.356-3.025-1.561-7.171-2.047-11.073-1.842-5.435 0.285-10.033 2.192-15.287 2.456-5.567 0.279-11.413-1.26-16.851-1.805-6.815-0.684-13.875-0.384-20.482 0.869-7.659 1.452-15.86 4.164-23.151 2.097-1.494-0.424-4.532-2.731-5.596-3.597-1.348-1.097-1.937-2.547-3.572-3.477-3.026-1.722-7.755-0.846-11.832-0.998-7.551-0.281-13.831-4.524-17.124-8.512-1.435-1.737-1.874-3.52-3.673-5.102-2.109-1.854-5.597-2.699-7.07-4.945-0.906-1.38-0.924-2.916-1.285-4.392-2.73-11.161-17.911-9.595-31.185-9.592-2.745 0-9.48 0.788-11.899-0.07-3.55-1.26-5.048-5.589-8.846-7.423-1.476-0.713-3.112-1.313-4.376-2.172-3.039-2.067-3.539-5.355-7.042-7.108-3.71-1.858-9.176-1.233-13.598-2.314-2.128-0.521-3.952-1.423-5.876-2.196-6.821-2.741-17.026-1.87-21.617-5.285-5.354-3.982-7.649-9.263-13.642-13.077-6.036-3.842-15.56-3.42-22.973-1.607-9.054 2.215-13.365 7.728-21.839 9.971-3.268 0.865-6.897 0.991-10.442 1.034-5.289 0.064-10.708-0.048-15.637-1.251-4.632-1.131-8.546-3.154-12.814-4.751-4.554-1.705-19.359-6.286-24.706-4.238-2.607 0.998-1.711 4.015-1.711 5.824v15.254 41.903 33.168c16.005-9e-3 32.01-0.018 48.015-0.027 36.644-0.022 73.288-0.043 109.93-0.064l120.68-0.069c27.965-0.017 56.033-1.131 84.025-0.993" fill="#421936"/></g><g transform="translate(800.02 294.23)" style=""><path d="m0 0v-35.965c-5.072-3.433-10.018-7.04-15.443-10.252-7.338-4.346-12.914-9.75-20.767-13.776-3.488-1.787-8.186-3.376-12.308-2.238-3.186 0.879-4.903 3.124-7.928 4.205-6.453 2.307-14.129-1.811-17.264-6.036-3.136-4.226-5.087-9.361-11.587-11.615-7.285-2.527-16.481 0.013-22.754 3.447-6.273 3.433-11.494 7.853-19.123 9.943-12.635 3.46-18.023-3.216-25.869-7.616-8.984-5.039-17.601-9.891-30.216-10.465-9.212-0.42-24.375-1.557-31.81 2.836-9.597 5.658-24.596 21.869-24.596 21.869-1.837 1.987-13.418 3.573-16.728 4.591-9.369 2.879-8.5 6.939-15.653 10.696-3.942 2.069-11.479 1.445-13.011 4.525-0.571 1.15 0.052 2.442-0.59 3.577-1.096 1.936-5.461 2.398-8.336 1.416-2.874-0.981-4.584-2.885-6.144-4.691-6.023-6.977-7.672-8.972-19.607-10.819-9.472-1.466-19.315-2.958-29.134-2.908-29.422 0.148-43.406 28.635-43.406 28.635l-100.43 20.429z" fill="#421936"/></g><g transform="translate(800.02 223.99)" style=""><path d="m0 0s-37.29 14.548-42.29 22.654c-5 8.107-10.073 14.356-19.036 14.998-8.964 0.642-19.865-3.752-28.414-3.753-13.043 0-29.844 10.55-41.817 3.859-2.51-1.403-4.004-3.368-6.033-5.049-10.065-8.337-32.21-7.536-44.274-0.32-4.673 2.795-8.181 6.289-12.902 9.051-4.722 2.763-11.357 4.791-17.557 3.665-6.645-1.206-10.936-5.657-17.686-6.605-7.618-1.07-15.105 3.03-17.366 7.72-0.717 1.487-1.422 3.306-3.78 3.777-2.441 0.488-4.725-0.84-6.964-1.621-10.096-3.521-12.172 3.276-16.532 6.931-15.416 12.924-30.506-11.889-37.141-15.802-4.17-2.459-10.406-3.45-15.937-2.533s-10.174 3.711-11.867 7.141c-4.002 8.11-7.097 7.807-19.385 4.546-5.93-1.574-13.083-1.185-18.492 1.008-2.261 0.916-4.313 2.228-4.836 3.885-0.365 1.152 0.037 2.382-0.565 3.494-1.07 1.974-4.9 2.818-8.213 2.681-3.314-0.138-6.467-0.97-9.77-1.187-4.565-0.3-9.304 0.647-12.764 2.556-6.23 3.433-22.787 2.055-30.872 2.234-13.635 0.301-27.27 0.603-40.904 0.904-18.195 0.403-36.389 0.806-54.584 1.208-13.183 0.291-26.162-2.108-36.989-6.839l-32.03-13.994h-24.29s-14-8.199-18-10.71-8-6.795-19-11.245c-11-4.449-20-4.339-28 0-8 4.34-16 4.968-22 4.34s-28.112-14.439-28.112-14.439l-2.507-0.666c-8.258-2.196-17.653-0.939-24.18 2.922-1.691 1.001-3.486 1.637-5.201 1.457-6-0.627-19.71-3.085-19.71-3.085v58.748h800z" fill="#220d27"/></g></g></g></g></g></g><g transform="matrix(1.3971 0 0 -1.3975 180.27 -186.23)" opacity=".5"><path d="m0 0c3.217 0 3.223 5 0 5-3.217 0-3.223-5 0-5" fill="#fff5a6"/></g><g transform="matrix(1.8628 0 0 -1.8634 355.49 -220.98)" opacity=".5"><path d="m0 0c3.217 0 3.223 5 0 5-3.217 0-3.223-5 0-5" fill="#fff5a6"/></g><g transform="matrix(1.2418 0 0 -1.2422 676.34 -208.69)" opacity=".5"><path d="m0 0c3.217 0 3.223 5 0 5-3.217 0-3.223-5 0-5" fill="#fff5a6"/></g></g></svg>
