<svg xmlns="http://www.w3.org/2000/svg" width="800" height="600"><path d="M477,297L331,462L498,466Z" fill="#61ba6c" stroke="#61ba6c" stroke-width="1.51"/><path d="M477,297L297,323L331,462Z" fill="#73c275" stroke="#73c275" stroke-width="1.51"/><path d="M477,297L327,141L297,323Z" fill="#85cb7e" stroke="#85cb7e" stroke-width="1.51"/><path d="M331,462L486,654L498,466Z" fill="#52ac62" stroke="#52ac62" stroke-width="1.51"/><path d="M498,466L689,276L477,297Z" fill="#5ab669" stroke="#5ab669" stroke-width="1.51"/><path d="M486,654L671,500L498,466Z" fill="#3ea258" stroke="#3ea258" stroke-width="1.51"/><path d="M477,297L470,117L327,141Z" fill="#89cd7e" stroke="#89cd7e" stroke-width="1.51"/><path d="M678,136L470,117L477,297Z" fill="#79c476" stroke="#79c476" stroke-width="1.51"/><path d="M297,323L131,490L331,462Z" fill="#7bc576" stroke="#7bc576" stroke-width="1.51"/><path d="M331,462L316,667L486,654Z" fill="#55a860" stroke="#55a860" stroke-width="1.51"/><path d="M327,141L151,280L297,323Z" fill="#97d385" stroke="#97d385" stroke-width="1.51"/><path d="M131,490L316,667L331,462Z" fill="#6db76c" stroke="#6db76c" stroke-width="1.51"/><path d="M671,500L689,276L498,466Z" fill="#46aa5d" stroke="#46aa5d" stroke-width="1.51"/><path d="M151,280L131,490L297,323Z" fill="#8dce7f" stroke="#8dce7f" stroke-width="1.51"/><path d="M689,276L678,136L477,297Z" fill="#67b96d" stroke="#67b96d" stroke-width="1.51"/><path d="M151,280L-43,319L131,490Z" fill="#9bd486" stroke="#9bd486" stroke-width="1.51"/><path d="M327,141L137,128L151,280Z" fill="#a9db8c" stroke="#a9db8c" stroke-width="1.51"/><path d="M300,-54L137,128L327,141Z" fill="#b3e091" stroke="#b3e091" stroke-width="1.51"/><path d="M131,490L145,665L316,667Z" fill="#70b269" stroke="#70b269" stroke-width="1.51"/><path d="M486,654L689,678L671,500Z" fill="#2f934d" stroke="#2f934d" stroke-width="1.51"/><path d="M671,500L840,462L689,276Z" fill="#3d9d55" stroke="#3d9d55" stroke-width="1.51"/><path d="M492,825L689,678L486,654Z" fill="#2e8e4d" stroke="#2e8e4d" stroke-width="1.51"/><path d="M492,825L486,654L331,830Z" fill="#3f9254" stroke="#3f9254" stroke-width="1.51"/><path d="M829,629L840,462L671,500Z" fill="#298c48" stroke="#298c48" stroke-width="1.51"/><path d="M689,276L864,276L678,136Z" fill="#5fab63" stroke="#5fab63" stroke-width="1.51"/><path d="M331,830L486,654L316,667Z" fill="#4c9c5b" stroke="#4c9c5b" stroke-width="1.51"/><path d="M145,665L331,830L316,667Z" fill="#5ea361" stroke="#5ea361" stroke-width="1.51"/><path d="M470,117L300,-54L327,141Z" fill="#a4d88a" stroke="#a4d88a" stroke-width="1.51"/><path d="M642,-51L495,-56L470,117Z" fill="#95d082" stroke="#95d082" stroke-width="1.51"/><path d="M495,-56L300,-54L470,117Z" fill="#a5d98b" stroke="#a5d98b" stroke-width="1.51"/><path d="M678,136L642,-51L470,117Z" fill="#85c778" stroke="#85c778" stroke-width="1.51"/><path d="M840,462L864,276L689,276Z" fill="#479d58" stroke="#479d58" stroke-width="1.51"/><path d="M-29,100L-43,319L151,280Z" fill="#b6e193" stroke="#b6e193" stroke-width="1.51"/><path d="M131,490L-58,663L145,665Z" fill="#80b870" stroke="#80b870" stroke-width="1.51"/><path d="M-29,100L151,280L137,128Z" fill="#bae394" stroke="#bae394" stroke-width="1.51"/><path d="M840,462L997,458L864,276Z" fill="#34904f" stroke="#34904f" stroke-width="1.51"/><path d="M689,678L829,629L671,500Z" fill="#278845" stroke="#278845" stroke-width="1.51"/><path d="M858,854L829,629L689,678Z" fill="#16773e" stroke="#16773e" stroke-width="1.51"/><path d="M-43,319L-72,451L131,490Z" fill="#9bd285" stroke="#9bd285" stroke-width="1.51"/><path d="M859,-61L642,-51L678,136Z" fill="#83bb72" stroke="#83bb72" stroke-width="1.51"/><path d="M492,825L689,824L689,678Z" fill="#218346" stroke="#218346" stroke-width="1.51"/><path d="M858,854L689,824L492,825Z" fill="#1a763f" stroke="#1a763f" stroke-width="1.51"/><path d="M864,276L869,118L678,136Z" fill="#63a964" stroke="#63a964" stroke-width="1.51"/><path d="M-58,663L108,822L145,665Z" fill="#79ae6c" stroke="#79ae6c" stroke-width="1.51"/><path d="M145,665L108,822L331,830Z" fill="#65a262" stroke="#65a262" stroke-width="1.51"/><path d="M-43,319L-226,318L-72,451Z" fill="#aedb92" stroke="#aedb92" stroke-width="1.51"/><path d="M107,-69L-29,100L137,128Z" fill="#cdeb9d" stroke="#cdeb9d" stroke-width="1.51"/><path d="M-72,451L-58,663L131,490Z" fill="#8ec57b" stroke="#8ec57b" stroke-width="1.51"/><path d="M300,-54L107,-69L137,128Z" fill="#c6e89a" stroke="#c6e89a" stroke-width="1.51"/><path d="M126,-225L107,-69L300,-54Z" fill="#d3eda2" stroke="#d3eda2" stroke-width="1.51"/><path d="M829,629L997,458L840,462Z" fill="#238546" stroke="#238546" stroke-width="1.51"/><path d="M864,276L1019,290L869,118Z" fill="#539d5c" stroke="#539d5c" stroke-width="1.51"/><path d="M997,670L997,458L829,629Z" fill="#17783e" stroke="#17783e" stroke-width="1.51"/><path d="M997,458L1019,290L864,276Z" fill="#3c9052" stroke="#3c9052" stroke-width="1.51"/><path d="M494,-254L303,-221L495,-56Z" fill="#b5df97" stroke="#b5df97" stroke-width="1.51"/><path d="M495,-56L303,-221L300,-54Z" fill="#b8e197" stroke="#b8e197" stroke-width="1.51"/><path d="M642,-51L494,-254L495,-56Z" fill="#a1d489" stroke="#a1d489" stroke-width="1.51"/><path d="M869,118L859,-61L678,136Z" fill="#76b16b" stroke="#76b16b" stroke-width="1.51"/><path d="M1042,-69L859,-61L869,118Z" fill="#77ab6b" stroke="#77ab6b" stroke-width="1.51"/><path d="M108,822L-23,853L331,830Z" fill="#689d62" stroke="#689d62" stroke-width="1.51"/><path d="M331,830L858,854L492,825Z" fill="#278248" stroke="#278248" stroke-width="1.51"/><path d="M-58,663L-23,853L108,822Z" fill="#7aaa6c" stroke="#7aaa6c" stroke-width="1.51"/><path d="M-238,130L-226,318L-43,319Z" fill="#c1e5a0" stroke="#c1e5a0" stroke-width="1.51"/><path d="M107,-69L-65,-31L-29,100Z" fill="#dbf1a4" stroke="#dbf1a4" stroke-width="1.51"/><path d="M-48,-235L-65,-31L107,-69Z" fill="#e6f6ad" stroke="#e6f6ad" stroke-width="1.51"/><path d="M689,824L858,854L689,678Z" fill="#15753c" stroke="#15753c" stroke-width="1.51"/><path d="M-23,853L858,854L331,830Z" fill="#448d54" stroke="#448d54" stroke-width="1.51"/><path d="M997,458L1044,853L1019,290Z" fill="#1b7640" stroke="#1b7640" stroke-width="1.51"/><path d="M858,854L997,670L829,629Z" fill="#0b6f3b" stroke="#0b6f3b" stroke-width="1.51"/><path d="M-238,130L-43,319L-29,100Z" fill="#c9e99f" stroke="#c9e99f" stroke-width="1.51"/><path d="M-72,451L-242,480L-58,663Z" fill="#99c982" stroke="#99c982" stroke-width="1.51"/><path d="M-58,663L-228,806L-23,853Z" fill="#84ae72" stroke="#84ae72" stroke-width="1.51"/><path d="M659,-259L494,-254L642,-51Z" fill="#a0d18b" stroke="#a0d18b" stroke-width="1.51"/><path d="M-226,318L-242,480L-72,451Z" fill="#a8d893" stroke="#a8d893" stroke-width="1.51"/><path d="M303,-221L126,-225L300,-54Z" fill="#cfeba2" stroke="#cfeba2" stroke-width="1.51"/><path d="M494,-254L126,-225L303,-221Z" fill="#c8e8a8" stroke="#c8e8a8" stroke-width="1.51"/><path d="M1019,290L1049,109L869,118Z" fill="#5b9a5d" stroke="#5b9a5d" stroke-width="1.51"/><path d="M1044,853L1049,109L1019,290Z" fill="#2b8149" stroke="#2b8149" stroke-width="1.51"/><path d="M864,-261L659,-259L859,-61Z" fill="#91bd7e" stroke="#91bd7e" stroke-width="1.51"/><path d="M859,-61L659,-259L642,-51Z" fill="#91c27c" stroke="#91c27c" stroke-width="1.51"/><path d="M-242,480L-225,670L-58,663Z" fill="#94c181" stroke="#94c181" stroke-width="1.51"/><path d="M-226,318L-238,130L-242,480Z" fill="#bae1a4" stroke="#bae1a4" stroke-width="1.51"/><path d="M-65,-31L-238,130L-29,100Z" fill="#dbf1a7" stroke="#dbf1a7" stroke-width="1.51"/><path d="M-221,-80L-238,130L-65,-31Z" fill="#e7f6b2" stroke="#e7f6b2" stroke-width="1.51"/><path d="M-242,480L-228,806L-225,670Z" fill="#92bd85" stroke="#92bd85" stroke-width="1.51"/><path d="M-225,670L-228,806L-58,663Z" fill="#8cb67b" stroke="#8cb67b" stroke-width="1.51"/><path d="M1049,109L1042,-69L869,118Z" fill="#6ca064" stroke="#6ca064" stroke-width="1.51"/><path d="M126,-225L-48,-235L107,-69Z" fill="#e7f5ae" stroke="#e7f5ae" stroke-width="1.51"/><path d="M494,-254L-48,-235L126,-225Z" fill="#d8efaf" stroke="#d8efaf" stroke-width="1.51"/><path d="M997,670L1044,853L997,458Z" fill="#0d6938" stroke="#0d6938" stroke-width="1.51"/><path d="M858,854L1044,853L997,670Z" fill="#006134" stroke="#006134" stroke-width="1.51"/><path d="M1047,-237L864,-261L859,-61Z" fill="#88b178" stroke="#88b178" stroke-width="1.51"/><path d="M-48,-235L-221,-80L-65,-31Z" fill="#f0fab4" stroke="#f0fab4" stroke-width="1.51"/><path d="M-221,-80L-212,-223L-238,130Z" fill="#eff9bc" stroke="#eff9bc" stroke-width="1.51"/><path d="M-48,-235L-212,-223L-221,-80Z" fill="#f8fcbf" stroke="#f8fcbf" stroke-width="1.51"/><path d="M1042,-69L1047,-237L859,-61Z" fill="#80a970" stroke="#80a970" stroke-width="1.51"/><path d="M1049,109L1047,-237L1042,-69Z" fill="#78a069" stroke="#78a069" stroke-width="1.51"/></svg>