<svg xmlns="http://www.w3.org/2000/svg" width="800" height="600"><path d="M449,332L373,465L508,427Z" fill="#55b88d" stroke="#55b88d" stroke-width="1.51"/><path d="M449,332L314,332L373,465Z" fill="#61bf9a" stroke="#61bf9a" stroke-width="1.51"/><path d="M373,465L425,596L508,427Z" fill="#4db07f" stroke="#4db07f" stroke-width="1.51"/><path d="M331,615L425,596L373,465Z" fill="#4fac7c" stroke="#4fac7c" stroke-width="1.51"/><path d="M508,427L618,298L449,332Z" fill="#53b78a" stroke="#53b78a" stroke-width="1.51"/><path d="M425,596L610,510L508,427Z" fill="#42a972" stroke="#42a972" stroke-width="1.51"/><path d="M610,510L618,298L508,427Z" fill="#45af7a" stroke="#45af7a" stroke-width="1.51"/><path d="M449,332L450,181L314,332Z" fill="#69c3a6" stroke="#69c3a6" stroke-width="1.51"/><path d="M162,498L331,615L373,465Z" fill="#60b68b" stroke="#60b68b" stroke-width="1.51"/><path d="M618,298L450,181L449,332Z" fill="#61be99" stroke="#61be99" stroke-width="1.51"/><path d="M314,332L162,498L373,465Z" fill="#6ac19c" stroke="#6ac19c" stroke-width="1.51"/><path d="M134,338L162,498L314,332Z" fill="#7bc9ab" stroke="#7bc9ab" stroke-width="1.51"/><path d="M478,769L612,643L425,596Z" fill="#35985f" stroke="#35985f" stroke-width="1.51"/><path d="M425,596L612,643L610,510Z" fill="#379f62" stroke="#379f62" stroke-width="1.51"/><path d="M610,510L809,300L618,298Z" fill="#43a871" stroke="#43a871" stroke-width="1.51"/><path d="M203,150L134,338L314,332Z" fill="#88d0bb" stroke="#88d0bb" stroke-width="1.51"/><path d="M450,181L298,101L314,332Z" fill="#7fccb5" stroke="#7fccb5" stroke-width="1.51"/><path d="M331,615L350,751L425,596Z" fill="#49a272" stroke="#49a272" stroke-width="1.51"/><path d="M162,498L207,664L331,615Z" fill="#63b186" stroke="#63b186" stroke-width="1.51"/><path d="M298,101L203,150L314,332Z" fill="#8cd3bf" stroke="#8cd3bf" stroke-width="1.51"/><path d="M207,664L350,751L331,615Z" fill="#53a477" stroke="#53a477" stroke-width="1.51"/><path d="M350,751L478,769L425,596Z" fill="#3d9967" stroke="#3d9967" stroke-width="1.51"/><path d="M618,298L706,122L450,181Z" fill="#66bd95" stroke="#66bd95" stroke-width="1.51"/><path d="M450,181L505,-4L298,101Z" fill="#89d0ba" stroke="#89d0ba" stroke-width="1.51"/><path d="M874,506L809,300L610,510Z" fill="#329a5d" stroke="#329a5d" stroke-width="1.51"/><path d="M809,300L706,122L618,298Z" fill="#56ad7f" stroke="#56ad7f" stroke-width="1.51"/><path d="M612,643L826,595L610,510Z" fill="#2a924e" stroke="#2a924e" stroke-width="1.51"/><path d="M478,769L643,748L612,643Z" fill="#278e51" stroke="#278e51" stroke-width="1.51"/><path d="M706,122L505,-4L450,181Z" fill="#7cc8a6" stroke="#7cc8a6" stroke-width="1.51"/><path d="M764,756L826,595L612,643Z" fill="#1c833f" stroke="#1c833f" stroke-width="1.51"/><path d="M826,595L874,506L610,510Z" fill="#278e4c" stroke="#278e4c" stroke-width="1.51"/><path d="M162,498L29,635L207,664Z" fill="#73b78d" stroke="#73b78d" stroke-width="1.51"/><path d="M207,664L139,836L350,751Z" fill="#58a077" stroke="#58a077" stroke-width="1.51"/><path d="M-81,491L29,635L162,498Z" fill="#85c29d" stroke="#85c29d" stroke-width="1.51"/><path d="M643,748L764,756L612,643Z" fill="#1e8543" stroke="#1e8543" stroke-width="1.51"/><path d="M1012,455L991,348L874,506Z" fill="#26864e" stroke="#26864e" stroke-width="1.51"/><path d="M478,769L764,756L643,748Z" fill="#208446" stroke="#208446" stroke-width="1.51"/><path d="M298,101L95,-47L203,150Z" fill="#ade0d4" stroke="#ade0d4" stroke-width="1.51"/><path d="M505,-4L321,-72L298,101Z" fill="#9ed9c8" stroke="#9ed9c8" stroke-width="1.51"/><path d="M134,338L-81,491L162,498Z" fill="#8bcdad" stroke="#8bcdad" stroke-width="1.51"/><path d="M-28,162L-61,336L134,338Z" fill="#a2daca" stroke="#a2daca" stroke-width="1.51"/><path d="M-28,162L134,338L203,150Z" fill="#a3dbcc" stroke="#a3dbcc" stroke-width="1.51"/><path d="M809,300L827,95L706,122Z" fill="#5dac7f" stroke="#5dac7f" stroke-width="1.51"/><path d="M706,122L679,-69L505,-4Z" fill="#84c6a2" stroke="#84c6a2" stroke-width="1.51"/><path d="M505,-4L537,-227L321,-72Z" fill="#9fd8c4" stroke="#9fd8c4" stroke-width="1.51"/><path d="M1000,158L827,95L809,300Z" fill="#54a176" stroke="#54a176" stroke-width="1.51"/><path d="M350,751L139,836L478,769Z" fill="#47956b" stroke="#47956b" stroke-width="1.51"/><path d="M478,769L1007,795L764,756Z" fill="#127635" stroke="#127635" stroke-width="1.51"/><path d="M29,635L139,836L207,664Z" fill="#6cab83" stroke="#6cab83" stroke-width="1.51"/><path d="M29,635L-22,780L139,836Z" fill="#73aa85" stroke="#73aa85" stroke-width="1.51"/><path d="M-61,336L-81,491L134,338Z" fill="#97d3ba" stroke="#97d3ba" stroke-width="1.51"/><path d="M95,-47L-28,162L203,150Z" fill="#bae5db" stroke="#bae5db" stroke-width="1.51"/><path d="M843,-18L679,-69L706,122Z" fill="#7dba92" stroke="#7dba92" stroke-width="1.51"/><path d="M1012,455L874,506L1046,646Z" fill="#1a793d" stroke="#1a793d" stroke-width="1.51"/><path d="M874,506L991,348L809,300Z" fill="#32925b" stroke="#32925b" stroke-width="1.51"/><path d="M321,-72L95,-47L298,101Z" fill="#b3e2d8" stroke="#b3e2d8" stroke-width="1.51"/><path d="M1046,646L874,506L826,595Z" fill="#167c3a" stroke="#167c3a" stroke-width="1.51"/><path d="M-192,632L-22,780L29,635Z" fill="#81b591" stroke="#81b591" stroke-width="1.51"/><path d="M1000,158L843,-18L827,95Z" fill="#67a780" stroke="#67a780" stroke-width="1.51"/><path d="M827,95L843,-18L706,122Z" fill="#6fb289" stroke="#6fb289" stroke-width="1.51"/><path d="M-81,491L-192,632L29,635Z" fill="#8ac09c" stroke="#8ac09c" stroke-width="1.51"/><path d="M-61,336L-164,506L-81,491Z" fill="#99d2b6" stroke="#99d2b6" stroke-width="1.51"/><path d="M-214,323L-164,506L-61,336Z" fill="#a1d7c0" stroke="#a1d7c0" stroke-width="1.51"/><path d="M991,348L1000,158L809,300Z" fill="#419568" stroke="#419568" stroke-width="1.51"/><path d="M1012,455L1000,158L991,348Z" fill="#36885d" stroke="#36885d" stroke-width="1.51"/><path d="M596,-229L537,-227L679,-69Z" fill="#97cfb0" stroke="#97cfb0" stroke-width="1.51"/><path d="M679,-69L537,-227L505,-4Z" fill="#94d0b2" stroke="#94d0b2" stroke-width="1.51"/><path d="M321,-72L105,-158L95,-47Z" fill="#c4e9e3" stroke="#c4e9e3" stroke-width="1.51"/><path d="M-191,179L-214,323L-61,336Z" fill="#afded1" stroke="#afded1" stroke-width="1.51"/><path d="M-191,179L-61,336L-28,162Z" fill="#b3e1d7" stroke="#b3e1d7" stroke-width="1.51"/><path d="M-132,23L-191,179L-28,162Z" fill="#c5e9e4" stroke="#c5e9e4" stroke-width="1.51"/><path d="M264,-240L105,-158L321,-72Z" fill="#c1e7e1" stroke="#c1e7e1" stroke-width="1.51"/><path d="M1012,455L1046,646L1000,158Z" fill="#277f4d" stroke="#277f4d" stroke-width="1.51"/><path d="M1007,795L1046,646L826,595Z" fill="#086c2e" stroke="#086c2e" stroke-width="1.51"/><path d="M790,-153L596,-229L679,-69Z" fill="#8fc5a3" stroke="#8fc5a3" stroke-width="1.51"/><path d="M-164,506L-192,632L-81,491Z" fill="#91c7a5" stroke="#91c7a5" stroke-width="1.51"/><path d="M-214,323L-192,632L-164,506Z" fill="#99cfb0" stroke="#99cfb0" stroke-width="1.51"/><path d="M-132,23L-28,162L95,-47Z" fill="#ccece7" stroke="#ccece7" stroke-width="1.51"/><path d="M843,-18L790,-153L679,-69Z" fill="#83bb95" stroke="#83bb95" stroke-width="1.51"/><path d="M938,-89L790,-153L843,-18Z" fill="#7eb38e" stroke="#7eb38e" stroke-width="1.51"/><path d="M596,-229L264,-240L537,-227Z" fill="#a7dac5" stroke="#a7dac5" stroke-width="1.51"/><path d="M537,-227L264,-240L321,-72Z" fill="#aeded1" stroke="#aeded1" stroke-width="1.51"/><path d="M-57,-83L-132,23L95,-47Z" fill="#d7f0ee" stroke="#d7f0ee" stroke-width="1.51"/><path d="M105,-158L-57,-83L95,-47Z" fill="#d6f0ed" stroke="#d6f0ed" stroke-width="1.51"/><path d="M-78,-145L-57,-83L105,-158Z" fill="#ddf2f2" stroke="#ddf2f2" stroke-width="1.51"/><path d="M139,836L1007,795L478,769Z" fill="#288550" stroke="#288550" stroke-width="1.51"/><path d="M764,756L1007,795L826,595Z" fill="#087331" stroke="#087331" stroke-width="1.51"/><path d="M-192,632L-153,789L-22,780Z" fill="#81b18e" stroke="#81b18e" stroke-width="1.51"/><path d="M-22,780L-153,789L139,836Z" fill="#74a484" stroke="#74a484" stroke-width="1.51"/><path d="M1000,158L938,-89L843,-18Z" fill="#6fa883" stroke="#6fa883" stroke-width="1.51"/><path d="M-135,-258L-78,-145L105,-158Z" fill="#e3f4f5" stroke="#e3f4f5" stroke-width="1.51"/><path d="M-57,-83L-78,-145L-132,23Z" fill="#def3f3" stroke="#def3f3" stroke-width="1.51"/><path d="M-132,23L-135,-258L-191,179Z" fill="#ddf3f1" stroke="#ddf3f1" stroke-width="1.51"/><path d="M596,-229L928,-253L264,-240Z" fill="#9cd1b3" stroke="#9cd1b3" stroke-width="1.51"/><path d="M790,-153L928,-253L596,-229Z" fill="#8dbe9a" stroke="#8dbe9a" stroke-width="1.51"/><path d="M938,-89L928,-253L790,-153Z" fill="#82b290" stroke="#82b290" stroke-width="1.51"/><path d="M1000,158L928,-253L938,-89Z" fill="#75a686" stroke="#75a686" stroke-width="1.51"/><path d="M264,-240L-135,-258L105,-158Z" fill="#dcf2ef" stroke="#dcf2ef" stroke-width="1.51"/><path d="M-78,-145L-135,-258L-132,23Z" fill="#e5f5f8" stroke="#e5f5f8" stroke-width="1.51"/><path d="M-191,179L-135,-258L-214,323Z" fill="#d0ede9" stroke="#d0ede9" stroke-width="1.51"/><path d="M928,-253L-135,-258L264,-240Z" fill="#b5e1d4" stroke="#b5e1d4" stroke-width="1.51"/></svg>